<mxfile host="app.diagrams.net" modified="2025-05-11T22:09:08.802Z" agent="Mozilla/5.0 (Windows NT 10.0; Win64; x64) AppleWebKit/537.36 (KHTML, like Gecko) Chrome/133.0.0.0 Safari/537.36 OPR/118.0.0.0" etag="b8mAnqN2BbHChHQQVidp" version="24.7.1" type="device">
  <diagram name="Page-1" id="5PDi24Nd0WOvzgx9rs48">
    <mxGraphModel dx="2883" dy="1143" grid="1" gridSize="10" guides="1" tooltips="1" connect="1" arrows="1" fold="1" page="1" pageScale="1" pageWidth="850" pageHeight="1100" math="0" shadow="0">
      <root>
        <mxCell id="0" />
        <mxCell id="1" parent="0" />
        <mxCell id="lJCqOrtROZyt1CxWIybu-80" value="" style="rounded=0;whiteSpace=wrap;html=1;" vertex="1" parent="1">
          <mxGeometry x="-250" y="127.5" width="1210" height="742.5" as="geometry" />
        </mxCell>
        <mxCell id="lJCqOrtROZyt1CxWIybu-28" value="" style="group" vertex="1" connectable="0" parent="1">
          <mxGeometry x="420" y="410" width="330" height="120" as="geometry" />
        </mxCell>
        <mxCell id="lJCqOrtROZyt1CxWIybu-13" value="" style="rounded=1;whiteSpace=wrap;html=1;" vertex="1" parent="lJCqOrtROZyt1CxWIybu-28">
          <mxGeometry width="330" height="120" as="geometry" />
        </mxCell>
        <mxCell id="lJCqOrtROZyt1CxWIybu-14" value="User Service" style="text;html=1;align=center;verticalAlign=middle;whiteSpace=wrap;rounded=0;" vertex="1" parent="lJCqOrtROZyt1CxWIybu-28">
          <mxGeometry x="80" y="6" width="170" height="30" as="geometry" />
        </mxCell>
        <mxCell id="lJCqOrtROZyt1CxWIybu-15" value="" style="aspect=fixed;sketch=0;html=1;dashed=0;whitespace=wrap;verticalLabelPosition=bottom;verticalAlign=top;fillColor=#2875E2;strokeColor=#ffffff;points=[[0.005,0.63,0],[0.1,0.2,0],[0.9,0.2,0],[0.5,0,0],[0.995,0.63,0],[0.72,0.99,0],[0.5,1,0],[0.28,0.99,0]];shape=mxgraph.kubernetes.icon2;prIcon=api" vertex="1" parent="lJCqOrtROZyt1CxWIybu-28">
          <mxGeometry x="20" y="42" width="60.42" height="58" as="geometry" />
        </mxCell>
        <mxCell id="lJCqOrtROZyt1CxWIybu-16" value="" style="image;aspect=fixed;html=1;points=[];align=center;fontSize=12;image=img/lib/azure2/databases/SQL_Server.svg;" vertex="1" parent="lJCqOrtROZyt1CxWIybu-28">
          <mxGeometry x="130" y="48" width="54" height="54" as="geometry" />
        </mxCell>
        <mxCell id="lJCqOrtROZyt1CxWIybu-17" style="edgeStyle=orthogonalEdgeStyle;rounded=0;orthogonalLoop=1;jettySize=auto;html=1;exitX=0.995;exitY=0.63;exitDx=0;exitDy=0;exitPerimeter=0;entryX=0.012;entryY=0.432;entryDx=0;entryDy=0;entryPerimeter=0;" edge="1" parent="lJCqOrtROZyt1CxWIybu-28" source="lJCqOrtROZyt1CxWIybu-15" target="lJCqOrtROZyt1CxWIybu-16">
          <mxGeometry relative="1" as="geometry" />
        </mxCell>
        <mxCell id="lJCqOrtROZyt1CxWIybu-18" value="" style="outlineConnect=0;dashed=0;verticalLabelPosition=bottom;verticalAlign=top;align=center;html=1;shape=mxgraph.aws3.android;fillColor=#115193;gradientColor=none;" vertex="1" parent="lJCqOrtROZyt1CxWIybu-28">
          <mxGeometry x="270" y="20" width="40" height="44" as="geometry" />
        </mxCell>
        <mxCell id="lJCqOrtROZyt1CxWIybu-19" value="ASP.NET" style="text;html=1;align=center;verticalAlign=middle;whiteSpace=wrap;rounded=0;" vertex="1" parent="lJCqOrtROZyt1CxWIybu-28">
          <mxGeometry x="260" y="64" width="60" height="30" as="geometry" />
        </mxCell>
        <mxCell id="lJCqOrtROZyt1CxWIybu-29" value="" style="group" vertex="1" connectable="0" parent="1">
          <mxGeometry x="420" y="260" width="330" height="120" as="geometry" />
        </mxCell>
        <mxCell id="lJCqOrtROZyt1CxWIybu-6" value="" style="rounded=1;whiteSpace=wrap;html=1;" vertex="1" parent="lJCqOrtROZyt1CxWIybu-29">
          <mxGeometry width="330" height="120" as="geometry" />
        </mxCell>
        <mxCell id="lJCqOrtROZyt1CxWIybu-7" value="Authentication Service" style="text;html=1;align=center;verticalAlign=middle;whiteSpace=wrap;rounded=0;" vertex="1" parent="lJCqOrtROZyt1CxWIybu-29">
          <mxGeometry x="80" y="6" width="170" height="30" as="geometry" />
        </mxCell>
        <mxCell id="lJCqOrtROZyt1CxWIybu-8" value="" style="aspect=fixed;sketch=0;html=1;dashed=0;whitespace=wrap;verticalLabelPosition=bottom;verticalAlign=top;fillColor=#2875E2;strokeColor=#ffffff;points=[[0.005,0.63,0],[0.1,0.2,0],[0.9,0.2,0],[0.5,0,0],[0.995,0.63,0],[0.72,0.99,0],[0.5,1,0],[0.28,0.99,0]];shape=mxgraph.kubernetes.icon2;prIcon=api" vertex="1" parent="lJCqOrtROZyt1CxWIybu-29">
          <mxGeometry x="20" y="42" width="60.42" height="58" as="geometry" />
        </mxCell>
        <mxCell id="lJCqOrtROZyt1CxWIybu-9" value="" style="image;aspect=fixed;html=1;points=[];align=center;fontSize=12;image=img/lib/azure2/databases/SQL_Server.svg;" vertex="1" parent="lJCqOrtROZyt1CxWIybu-29">
          <mxGeometry x="130" y="48" width="54" height="54" as="geometry" />
        </mxCell>
        <mxCell id="lJCqOrtROZyt1CxWIybu-10" style="edgeStyle=orthogonalEdgeStyle;rounded=0;orthogonalLoop=1;jettySize=auto;html=1;exitX=0.995;exitY=0.63;exitDx=0;exitDy=0;exitPerimeter=0;entryX=0.012;entryY=0.432;entryDx=0;entryDy=0;entryPerimeter=0;" edge="1" parent="lJCqOrtROZyt1CxWIybu-29" source="lJCqOrtROZyt1CxWIybu-8" target="lJCqOrtROZyt1CxWIybu-9">
          <mxGeometry relative="1" as="geometry" />
        </mxCell>
        <mxCell id="lJCqOrtROZyt1CxWIybu-11" value="" style="outlineConnect=0;dashed=0;verticalLabelPosition=bottom;verticalAlign=top;align=center;html=1;shape=mxgraph.aws3.android;fillColor=#115193;gradientColor=none;" vertex="1" parent="lJCqOrtROZyt1CxWIybu-29">
          <mxGeometry x="270" y="20" width="40" height="44" as="geometry" />
        </mxCell>
        <mxCell id="lJCqOrtROZyt1CxWIybu-12" value="ASP.NET" style="text;html=1;align=center;verticalAlign=middle;whiteSpace=wrap;rounded=0;" vertex="1" parent="lJCqOrtROZyt1CxWIybu-29">
          <mxGeometry x="260" y="64" width="60" height="30" as="geometry" />
        </mxCell>
        <mxCell id="lJCqOrtROZyt1CxWIybu-30" value="" style="group" vertex="1" connectable="0" parent="1">
          <mxGeometry x="420" y="550" width="330" height="120" as="geometry" />
        </mxCell>
        <mxCell id="lJCqOrtROZyt1CxWIybu-31" value="" style="rounded=1;whiteSpace=wrap;html=1;" vertex="1" parent="lJCqOrtROZyt1CxWIybu-30">
          <mxGeometry width="330" height="120" as="geometry" />
        </mxCell>
        <mxCell id="lJCqOrtROZyt1CxWIybu-32" value="Calendar Service" style="text;html=1;align=center;verticalAlign=middle;whiteSpace=wrap;rounded=0;" vertex="1" parent="lJCqOrtROZyt1CxWIybu-30">
          <mxGeometry x="80" y="6" width="170" height="30" as="geometry" />
        </mxCell>
        <mxCell id="lJCqOrtROZyt1CxWIybu-33" value="" style="aspect=fixed;sketch=0;html=1;dashed=0;whitespace=wrap;verticalLabelPosition=bottom;verticalAlign=top;fillColor=#2875E2;strokeColor=#ffffff;points=[[0.005,0.63,0],[0.1,0.2,0],[0.9,0.2,0],[0.5,0,0],[0.995,0.63,0],[0.72,0.99,0],[0.5,1,0],[0.28,0.99,0]];shape=mxgraph.kubernetes.icon2;prIcon=api" vertex="1" parent="lJCqOrtROZyt1CxWIybu-30">
          <mxGeometry x="20" y="42" width="60.42" height="58" as="geometry" />
        </mxCell>
        <mxCell id="lJCqOrtROZyt1CxWIybu-34" value="" style="image;aspect=fixed;html=1;points=[];align=center;fontSize=12;image=img/lib/azure2/databases/SQL_Server.svg;" vertex="1" parent="lJCqOrtROZyt1CxWIybu-30">
          <mxGeometry x="130" y="48" width="54" height="54" as="geometry" />
        </mxCell>
        <mxCell id="lJCqOrtROZyt1CxWIybu-35" style="edgeStyle=orthogonalEdgeStyle;rounded=0;orthogonalLoop=1;jettySize=auto;html=1;exitX=0.995;exitY=0.63;exitDx=0;exitDy=0;exitPerimeter=0;entryX=0.012;entryY=0.432;entryDx=0;entryDy=0;entryPerimeter=0;" edge="1" parent="lJCqOrtROZyt1CxWIybu-30" source="lJCqOrtROZyt1CxWIybu-33" target="lJCqOrtROZyt1CxWIybu-34">
          <mxGeometry relative="1" as="geometry" />
        </mxCell>
        <mxCell id="lJCqOrtROZyt1CxWIybu-36" value="" style="outlineConnect=0;dashed=0;verticalLabelPosition=bottom;verticalAlign=top;align=center;html=1;shape=mxgraph.aws3.android;fillColor=#115193;gradientColor=none;" vertex="1" parent="lJCqOrtROZyt1CxWIybu-30">
          <mxGeometry x="270" y="20" width="40" height="44" as="geometry" />
        </mxCell>
        <mxCell id="lJCqOrtROZyt1CxWIybu-37" value="ASP.NET" style="text;html=1;align=center;verticalAlign=middle;whiteSpace=wrap;rounded=0;" vertex="1" parent="lJCqOrtROZyt1CxWIybu-30">
          <mxGeometry x="260" y="64" width="60" height="30" as="geometry" />
        </mxCell>
        <mxCell id="lJCqOrtROZyt1CxWIybu-38" value="" style="group" vertex="1" connectable="0" parent="1">
          <mxGeometry x="420" y="690" width="330" height="120" as="geometry" />
        </mxCell>
        <mxCell id="lJCqOrtROZyt1CxWIybu-39" value="" style="rounded=1;whiteSpace=wrap;html=1;" vertex="1" parent="lJCqOrtROZyt1CxWIybu-38">
          <mxGeometry width="330" height="120" as="geometry" />
        </mxCell>
        <mxCell id="lJCqOrtROZyt1CxWIybu-40" value="Appointment Service" style="text;html=1;align=center;verticalAlign=middle;whiteSpace=wrap;rounded=0;" vertex="1" parent="lJCqOrtROZyt1CxWIybu-38">
          <mxGeometry x="80" y="6" width="170" height="30" as="geometry" />
        </mxCell>
        <mxCell id="lJCqOrtROZyt1CxWIybu-41" value="" style="aspect=fixed;sketch=0;html=1;dashed=0;whitespace=wrap;verticalLabelPosition=bottom;verticalAlign=top;fillColor=#2875E2;strokeColor=#ffffff;points=[[0.005,0.63,0],[0.1,0.2,0],[0.9,0.2,0],[0.5,0,0],[0.995,0.63,0],[0.72,0.99,0],[0.5,1,0],[0.28,0.99,0]];shape=mxgraph.kubernetes.icon2;prIcon=api" vertex="1" parent="lJCqOrtROZyt1CxWIybu-38">
          <mxGeometry x="20" y="42" width="60.42" height="58" as="geometry" />
        </mxCell>
        <mxCell id="lJCqOrtROZyt1CxWIybu-42" value="" style="image;aspect=fixed;html=1;points=[];align=center;fontSize=12;image=img/lib/azure2/databases/SQL_Server.svg;" vertex="1" parent="lJCqOrtROZyt1CxWIybu-38">
          <mxGeometry x="130" y="48" width="54" height="54" as="geometry" />
        </mxCell>
        <mxCell id="lJCqOrtROZyt1CxWIybu-43" style="edgeStyle=orthogonalEdgeStyle;rounded=0;orthogonalLoop=1;jettySize=auto;html=1;exitX=0.995;exitY=0.63;exitDx=0;exitDy=0;exitPerimeter=0;entryX=0.012;entryY=0.432;entryDx=0;entryDy=0;entryPerimeter=0;" edge="1" parent="lJCqOrtROZyt1CxWIybu-38" source="lJCqOrtROZyt1CxWIybu-41" target="lJCqOrtROZyt1CxWIybu-42">
          <mxGeometry relative="1" as="geometry" />
        </mxCell>
        <mxCell id="lJCqOrtROZyt1CxWIybu-44" value="" style="outlineConnect=0;dashed=0;verticalLabelPosition=bottom;verticalAlign=top;align=center;html=1;shape=mxgraph.aws3.android;fillColor=#115193;gradientColor=none;" vertex="1" parent="lJCqOrtROZyt1CxWIybu-38">
          <mxGeometry x="270" y="20" width="40" height="44" as="geometry" />
        </mxCell>
        <mxCell id="lJCqOrtROZyt1CxWIybu-45" value="ASP.NET" style="text;html=1;align=center;verticalAlign=middle;whiteSpace=wrap;rounded=0;" vertex="1" parent="lJCqOrtROZyt1CxWIybu-38">
          <mxGeometry x="260" y="64" width="60" height="30" as="geometry" />
        </mxCell>
        <mxCell id="lJCqOrtROZyt1CxWIybu-46" value="" style="group" vertex="1" connectable="0" parent="1">
          <mxGeometry x="60" y="400" width="180" height="300" as="geometry" />
        </mxCell>
        <mxCell id="lJCqOrtROZyt1CxWIybu-2" value="" style="rounded=0;whiteSpace=wrap;html=1;" vertex="1" parent="lJCqOrtROZyt1CxWIybu-46">
          <mxGeometry width="180" height="300" as="geometry" />
        </mxCell>
        <mxCell id="lJCqOrtROZyt1CxWIybu-3" value="&lt;font style=&quot;font-size: 20px;&quot;&gt;API Gateway&lt;/font&gt;" style="text;html=1;align=center;verticalAlign=middle;whiteSpace=wrap;rounded=0;" vertex="1" parent="lJCqOrtROZyt1CxWIybu-46">
          <mxGeometry x="60" y="30" width="60" height="30" as="geometry" />
        </mxCell>
        <mxCell id="lJCqOrtROZyt1CxWIybu-5" value="" style="outlineConnect=0;dashed=0;verticalLabelPosition=bottom;verticalAlign=top;align=center;html=1;shape=mxgraph.aws3.api_gateway;fillColor=#D9A741;gradientColor=none;" vertex="1" parent="lJCqOrtROZyt1CxWIybu-46">
          <mxGeometry x="51.75" y="120" width="76.5" height="93" as="geometry" />
        </mxCell>
        <mxCell id="lJCqOrtROZyt1CxWIybu-48" value="" style="rounded=1;whiteSpace=wrap;html=1;" vertex="1" parent="1">
          <mxGeometry x="855" y="260" width="50" height="550" as="geometry" />
        </mxCell>
        <mxCell id="lJCqOrtROZyt1CxWIybu-50" value="" style="shape=image;verticalLabelPosition=bottom;labelBackgroundColor=default;verticalAlign=top;aspect=fixed;imageAspect=0;image=https://download.logo.wine/logo/RabbitMQ/RabbitMQ-Logo.wine.png;rotation=90;" vertex="1" parent="1">
          <mxGeometry x="790" y="460" width="180" height="120" as="geometry" />
        </mxCell>
        <mxCell id="lJCqOrtROZyt1CxWIybu-56" style="edgeStyle=orthogonalEdgeStyle;rounded=0;orthogonalLoop=1;jettySize=auto;html=1;exitX=1;exitY=0.5;exitDx=0;exitDy=0;entryX=0;entryY=0.5;entryDx=0;entryDy=0;" edge="1" parent="1" source="lJCqOrtROZyt1CxWIybu-51" target="lJCqOrtROZyt1CxWIybu-48">
          <mxGeometry relative="1" as="geometry" />
        </mxCell>
        <mxCell id="lJCqOrtROZyt1CxWIybu-51" value="" style="shape=message;html=1;html=1;outlineConnect=0;labelPosition=center;verticalLabelPosition=bottom;align=center;verticalAlign=top;" vertex="1" parent="1">
          <mxGeometry x="780" y="310" width="30" height="20" as="geometry" />
        </mxCell>
        <mxCell id="lJCqOrtROZyt1CxWIybu-57" style="edgeStyle=orthogonalEdgeStyle;rounded=0;orthogonalLoop=1;jettySize=auto;html=1;exitX=1;exitY=0.5;exitDx=0;exitDy=0;entryX=0;entryY=0.5;entryDx=0;entryDy=0;" edge="1" parent="1" source="lJCqOrtROZyt1CxWIybu-52" target="lJCqOrtROZyt1CxWIybu-48">
          <mxGeometry relative="1" as="geometry" />
        </mxCell>
        <mxCell id="lJCqOrtROZyt1CxWIybu-52" value="" style="shape=message;html=1;html=1;outlineConnect=0;labelPosition=center;verticalLabelPosition=bottom;align=center;verticalAlign=top;" vertex="1" parent="1">
          <mxGeometry x="780" y="470" width="30" height="20" as="geometry" />
        </mxCell>
        <mxCell id="lJCqOrtROZyt1CxWIybu-58" style="edgeStyle=orthogonalEdgeStyle;rounded=0;orthogonalLoop=1;jettySize=auto;html=1;exitX=1;exitY=0.5;exitDx=0;exitDy=0;entryX=0;entryY=0.5;entryDx=0;entryDy=0;" edge="1" parent="1" source="lJCqOrtROZyt1CxWIybu-53" target="lJCqOrtROZyt1CxWIybu-48">
          <mxGeometry relative="1" as="geometry" />
        </mxCell>
        <mxCell id="lJCqOrtROZyt1CxWIybu-53" value="" style="shape=message;html=1;html=1;outlineConnect=0;labelPosition=center;verticalLabelPosition=bottom;align=center;verticalAlign=top;" vertex="1" parent="1">
          <mxGeometry x="780" y="590" width="30" height="20" as="geometry" />
        </mxCell>
        <mxCell id="lJCqOrtROZyt1CxWIybu-59" style="edgeStyle=orthogonalEdgeStyle;rounded=0;orthogonalLoop=1;jettySize=auto;html=1;exitX=1;exitY=0.5;exitDx=0;exitDy=0;" edge="1" parent="1" source="lJCqOrtROZyt1CxWIybu-54" target="lJCqOrtROZyt1CxWIybu-48">
          <mxGeometry relative="1" as="geometry" />
        </mxCell>
        <mxCell id="lJCqOrtROZyt1CxWIybu-54" value="" style="shape=message;html=1;html=1;outlineConnect=0;labelPosition=center;verticalLabelPosition=bottom;align=center;verticalAlign=top;" vertex="1" parent="1">
          <mxGeometry x="780" y="730" width="30" height="20" as="geometry" />
        </mxCell>
        <mxCell id="lJCqOrtROZyt1CxWIybu-61" style="edgeStyle=orthogonalEdgeStyle;rounded=0;orthogonalLoop=1;jettySize=auto;html=1;exitX=1;exitY=0.5;exitDx=0;exitDy=0;entryX=0;entryY=0.5;entryDx=0;entryDy=0;" edge="1" parent="1" source="lJCqOrtROZyt1CxWIybu-6" target="lJCqOrtROZyt1CxWIybu-51">
          <mxGeometry relative="1" as="geometry" />
        </mxCell>
        <mxCell id="lJCqOrtROZyt1CxWIybu-62" value="" style="edgeStyle=orthogonalEdgeStyle;rounded=0;orthogonalLoop=1;jettySize=auto;html=1;" edge="1" parent="1" source="lJCqOrtROZyt1CxWIybu-13" target="lJCqOrtROZyt1CxWIybu-52">
          <mxGeometry relative="1" as="geometry" />
        </mxCell>
        <mxCell id="lJCqOrtROZyt1CxWIybu-64" style="edgeStyle=orthogonalEdgeStyle;rounded=0;orthogonalLoop=1;jettySize=auto;html=1;exitX=1;exitY=0.5;exitDx=0;exitDy=0;" edge="1" parent="1" source="lJCqOrtROZyt1CxWIybu-31" target="lJCqOrtROZyt1CxWIybu-53">
          <mxGeometry relative="1" as="geometry" />
        </mxCell>
        <mxCell id="lJCqOrtROZyt1CxWIybu-65" style="edgeStyle=orthogonalEdgeStyle;rounded=0;orthogonalLoop=1;jettySize=auto;html=1;exitX=1;exitY=0.5;exitDx=0;exitDy=0;" edge="1" parent="1" source="lJCqOrtROZyt1CxWIybu-39" target="lJCqOrtROZyt1CxWIybu-54">
          <mxGeometry relative="1" as="geometry" />
        </mxCell>
        <mxCell id="lJCqOrtROZyt1CxWIybu-68" style="edgeStyle=orthogonalEdgeStyle;rounded=0;orthogonalLoop=1;jettySize=auto;html=1;exitX=1;exitY=0.5;exitDx=0;exitDy=0;entryX=0;entryY=0.5;entryDx=0;entryDy=0;" edge="1" parent="1" source="lJCqOrtROZyt1CxWIybu-2" target="lJCqOrtROZyt1CxWIybu-6">
          <mxGeometry relative="1" as="geometry" />
        </mxCell>
        <mxCell id="lJCqOrtROZyt1CxWIybu-69" style="edgeStyle=orthogonalEdgeStyle;rounded=0;orthogonalLoop=1;jettySize=auto;html=1;exitX=1;exitY=0.5;exitDx=0;exitDy=0;entryX=0;entryY=0.5;entryDx=0;entryDy=0;" edge="1" parent="1" source="lJCqOrtROZyt1CxWIybu-2" target="lJCqOrtROZyt1CxWIybu-13">
          <mxGeometry relative="1" as="geometry" />
        </mxCell>
        <mxCell id="lJCqOrtROZyt1CxWIybu-70" style="edgeStyle=orthogonalEdgeStyle;rounded=0;orthogonalLoop=1;jettySize=auto;html=1;exitX=1;exitY=0.5;exitDx=0;exitDy=0;entryX=0;entryY=0.5;entryDx=0;entryDy=0;" edge="1" parent="1" source="lJCqOrtROZyt1CxWIybu-2" target="lJCqOrtROZyt1CxWIybu-31">
          <mxGeometry relative="1" as="geometry" />
        </mxCell>
        <mxCell id="lJCqOrtROZyt1CxWIybu-71" style="edgeStyle=orthogonalEdgeStyle;rounded=0;orthogonalLoop=1;jettySize=auto;html=1;exitX=1;exitY=0.5;exitDx=0;exitDy=0;entryX=0;entryY=0.5;entryDx=0;entryDy=0;" edge="1" parent="1" source="lJCqOrtROZyt1CxWIybu-2" target="lJCqOrtROZyt1CxWIybu-39">
          <mxGeometry relative="1" as="geometry" />
        </mxCell>
        <mxCell id="lJCqOrtROZyt1CxWIybu-78" style="edgeStyle=orthogonalEdgeStyle;rounded=0;orthogonalLoop=1;jettySize=auto;html=1;exitX=1;exitY=0.5;exitDx=0;exitDy=0;entryX=0;entryY=0.5;entryDx=0;entryDy=0;" edge="1" parent="1" source="lJCqOrtROZyt1CxWIybu-72" target="lJCqOrtROZyt1CxWIybu-2">
          <mxGeometry relative="1" as="geometry" />
        </mxCell>
        <mxCell id="lJCqOrtROZyt1CxWIybu-72" value="" style="rounded=0;whiteSpace=wrap;html=1;" vertex="1" parent="1">
          <mxGeometry x="-200" y="400" width="180" height="300" as="geometry" />
        </mxCell>
        <mxCell id="lJCqOrtROZyt1CxWIybu-73" value="Patients/Doctors" style="text;html=1;align=center;verticalAlign=middle;whiteSpace=wrap;rounded=0;" vertex="1" parent="1">
          <mxGeometry x="-140" y="410" width="60" height="30" as="geometry" />
        </mxCell>
        <mxCell id="lJCqOrtROZyt1CxWIybu-74" value="" style="image;aspect=fixed;html=1;points=[];align=center;fontSize=12;image=img/lib/azure2/app_services/App_Service_Domains.svg;" vertex="1" parent="1">
          <mxGeometry x="-144" y="507.5" width="68" height="55.00000000000001" as="geometry" />
        </mxCell>
        <mxCell id="lJCqOrtROZyt1CxWIybu-75" value="Kubernetes" style="image;aspect=fixed;html=1;points=[];align=center;fontSize=12;image=img/lib/azure2/containers/Kubernetes_Services.svg;" vertex="1" parent="1">
          <mxGeometry x="321" y="140" width="68" height="60" as="geometry" />
        </mxCell>
        <mxCell id="lJCqOrtROZyt1CxWIybu-76" value="Site" style="text;html=1;align=center;verticalAlign=middle;whiteSpace=wrap;rounded=0;" vertex="1" parent="1">
          <mxGeometry x="-140" y="477.5" width="60" height="30" as="geometry" />
        </mxCell>
        <mxCell id="lJCqOrtROZyt1CxWIybu-77" value="" style="shape=image;verticalLabelPosition=bottom;labelBackgroundColor=default;verticalAlign=top;aspect=fixed;imageAspect=0;image=https://img.icons8.com/fluent/512/angularjs.png;" vertex="1" parent="1">
          <mxGeometry x="-136" y="630" width="52" height="52" as="geometry" />
        </mxCell>
      </root>
    </mxGraphModel>
  </diagram>
</mxfile>
